<svg id="Capa_1" enable-background="new 0 0 512.006 512.006" height="512" viewBox="0 0 512.006 512.006" width="512" xmlns="http://www.w3.org/2000/svg" xmlns:xlink="http://www.w3.org/1999/xlink"><linearGradient id="SVGID_1_" gradientUnits="userSpaceOnUse" x1="256.003" x2="256.003" y1="408.357" y2="103.649"><stop offset="0" stop-color="#fd3a84"/><stop offset="1" stop-color="#ffa68d"/></linearGradient><g><g><g><path d="m503.783 238.021c-.34-.172-34.379-17.57-70.141-48.578-8.235-7.14-16.12-15.943-24.468-25.263-15.742-17.574-33.584-37.494-58.85-51.396-26.538-14.603-59.312-11.503-83.495 7.894-6.578 5.274-15.077 5.275-21.653 0-24.185-19.397-56.96-22.496-83.495-7.894-25.266 13.902-43.108 33.821-58.85 51.396-8.348 9.32-16.233 18.123-24.468 25.263-35.591 30.86-69.809 48.409-70.141 48.578-7.128 3.612-10.173 12.179-6.923 19.48.485 1.091 12.205 27.068 39.59 58.031 25.109 28.389 68.913 66.777 135.007 88.437 17.954 5.885 37.028 5.849 55.16-.102 16.087-5.28 33.807-5.28 49.895 0 17.678 5.802 36.762 6.131 55.159.102 66.094-21.66 109.898-60.048 135.007-88.437 27.385-30.964 39.104-56.941 39.59-58.031 3.25-7.301.205-15.868-6.924-19.48zm-177.016 137.441c-11.837 3.88-24.445 3.845-36.461-.098-11.062-3.631-22.68-5.445-34.303-5.445-11.62 0-23.244 1.815-34.302 5.445-12.016 3.944-24.625 3.978-36.462.098-59.201-19.401-98.529-53.628-121.097-78.925-13.868-15.546-23.315-29.744-28.944-39.231 54.413-32.099 77.677-59.374 89.98-73.109 14.835-16.562 30.175-33.688 50.966-45.128 15.858-8.726 35.586-6.758 50.263 5.013 17.702 14.198 41.49 14.198 59.193 0 14.676-11.771 34.405-13.739 50.263-5.013 20.79 11.439 36.13 28.566 50.965 45.128 12.531 13.99 35.174 40.78 89.987 73.113-15.608 26.286-60.75 88.887-150.048 118.152zm-70.764-169.061c-19.008 0-38.712 3.893-58.563 11.57-31.623 12.229-62.026 18.43-90.366 18.43h-1.071c-8.284 0-15 6.716-15 15s6.716 15 15 15h1.071c28.339 0 58.743 6.201 90.365 18.43 19.852 7.677 39.555 11.57 58.563 11.57s38.712-3.893 58.563-11.57c31.623-12.229 62.026-18.43 90.366-18.43h1.071c8.284 0 15-6.716 15-15s-6.716-15-15-15h-1.071c-28.339 0-58.743-6.201-90.365-18.43-19.851-7.677-39.555-11.57-58.563-11.57zm0 60c-27.098 0-45.337-9.127-62.893-15 17.558-5.874 35.795-15 62.893-15s45.337 9.127 62.893 15c-17.558 5.874-35.795 15-62.893 15z" fill="url(#SVGID_1_)"/></g></g></g></svg>